<?xml version="1.0" standalone="no"?>
<!DOCTYPE svg PUBLIC "-//W3C//DTD SVG 20010904//EN"
 "http://www.w3.org/TR/2001/REC-SVG-20010904/DTD/svg10.dtd">
<svg version="1.0" xmlns="http://www.w3.org/2000/svg"
 width="236.000000pt" height="236.000000pt" viewBox="0 0 236.000000 236.000000"
 preserveAspectRatio="xMidYMid meet">
<metadata>
Created by potrace 1.16, written by Peter Selinger 2001-2019
</metadata>
<g transform="translate(0.000000,236.000000) scale(0.100000,-0.100000)"
fill="#000000" stroke="none">
<path d="M1632 2030 c-56 -13 -102 -70 -102 -125 0 -14 -12 -41 -26 -59 -26
-33 -27 -33 -67 -19 -24 8 -56 12 -77 8 -31 -5 -36 -10 -33 -28 3 -19 30 -304
50 -525 5 -49 10 -65 26 -73 14 -8 22 -8 27 1 11 17 77 6 110 -18 14 -10 31
-32 39 -48 8 -16 18 -32 23 -35 5 -3 24 -38 44 -79 31 -65 33 -76 23 -107 -12
-37 -34 -53 -73 -53 -52 0 -73 80 -25 95 36 12 69 -38 34 -51 -22 -9 -38 5
-24 22 9 10 9 14 0 14 -21 0 -25 -32 -6 -46 37 -28 77 30 43 64 -28 28 -88 0
-88 -42 0 -77 111 -97 140 -25 16 38 26 37 40 -5 6 -19 16 -37 23 -40 7 -3 6
-5 -4 -5 -8 -1 -21 5 -29 12 -12 10 -12 9 -1 -5 7 -10 22 -18 32 -18 11 0 37
-12 59 -26 33 -22 48 -26 82 -21 39 5 43 3 85 -44 76 -83 164 -91 235 -19 33
33 38 44 38 84 0 62 -21 99 -66 121 -71 33 -144 -10 -144 -85 0 -73 86 -109
129 -53 23 28 20 59 -7 81 -20 16 -34 15 -58 -2 -18 -13 -17 -14 16 -13 31 2
35 -1 38 -24 6 -53 -67 -65 -90 -14 -17 38 -2 74 37 91 92 38 168 -74 109
-160 -54 -79 -169 -73 -240 12 l-27 34 32 25 c57 45 72 97 51 175 -9 32 -17
39 -60 53 -53 17 -90 9 -90 -20 0 -21 -14 -19 -36 6 -24 27 -134 122 -134 117
0 -3 44 -45 98 -93 53 -49 105 -102 114 -119 18 -33 23 -81 10 -90 -5 -3 -39
41 -76 98 -37 57 -91 125 -119 152 l-52 49 41 -45 c78 -87 183 -245 170 -257
-4 -4 -19 -2 -34 3 -30 10 -78 79 -152 215 -25 46 -60 101 -79 121 -30 34 -31
38 -15 44 135 47 209 112 243 217 22 67 42 179 31 172 -4 -3 -10 19 -13 48 -9
90 -44 166 -103 223 -69 68 -92 73 -155 34 -27 -16 -51 -30 -53 -30 -3 0 -1
15 5 33 14 50 61 87 112 87 73 0 133 -53 177 -155 13 -32 18 -39 15 -20 -12
57 -60 129 -109 163 -50 33 -59 35 -114 22z m-11 -234 c36 -11 45 -19 57 -52
23 -64 27 -211 8 -278 -19 -65 -75 -134 -131 -160 -29 -14 -126 -38 -132 -33
-1 1 -7 51 -14 110 -14 125 -6 175 43 295 21 52 33 70 39 60 17 -26 9 -95 -16
-142 -14 -26 -23 -52 -20 -57 11 -17 44 -9 64 17 46 58 50 149 10 206 -19 26
-19 29 -3 53 16 24 18 24 35 10 9 -9 37 -22 60 -29z"/>
<path d="M1159 1873 c-9 -2 -41 -57 -72 -121 -50 -104 -76 -182 -157 -459 -20
-69 -40 -96 -40 -54 0 11 -4 23 -10 26 -12 8 24 106 45 121 8 6 15 22 15 35 0
13 10 40 21 59 l21 35 -26 -24 c-14 -13 -30 -39 -37 -58 -6 -19 -13 -32 -15
-30 -3 2 5 28 16 57 12 29 18 60 15 68 -9 24 -23 2 -33 -53 -9 -46 -10 -47
-12 -15 -1 19 -5 44 -10 55 -6 15 -9 8 -9 -27 -1 -26 -6 -50 -11 -53 -6 -4 -7
-12 -3 -18 19 -31 -13 -137 -41 -137 -22 0 -25 -24 -6 -50 12 -16 24 -21 39
-17 11 3 19 1 15 -4 -3 -5 -14 -9 -24 -9 -23 0 -118 -92 -131 -128 -6 -15 -11
-48 -11 -74 -1 -27 -5 -48 -9 -48 -5 0 -6 -7 -2 -16 4 -10 1 -14 -8 -12 -8 2
-14 -1 -14 -7 0 -5 6 -10 13 -10 8 0 18 -8 23 -18 12 -21 29 -22 29 -1 0 8 -4
12 -10 9 -5 -3 -7 0 -4 8 4 12 33 15 67 9 12 -3 -18 -54 -62 -104 -27 -30 -60
-54 -96 -69 -30 -12 -55 -27 -55 -32 0 -4 -9 -6 -19 -2 -21 6 -51 -18 -51 -41
0 -8 9 -23 21 -35 19 -19 19 -20 2 -17 -10 2 -22 13 -28 26 -13 29 -29 28 -54
-4 -28 -35 -26 -59 5 -90 20 -21 33 -25 64 -22 31 3 37 1 27 -10 -20 -24 -91
-55 -128 -55 -49 0 -66 11 -43 27 20 15 11 36 -16 36 -27 0 -31 -26 -9 -54 15
-19 16 -24 5 -20 -8 3 -18 14 -21 25 -8 24 -20 24 -45 -1 -31 -31 -22 -63 25
-88 17 -10 14 -11 -23 -12 -119 -1 -208 131 -157 230 19 38 60 68 100 76 62
11 126 -45 110 -97 -5 -15 -10 -17 -26 -9 -11 6 -24 8 -29 5 -18 -11 -10 -44
12 -51 16 -5 27 0 45 20 72 84 -52 195 -156 141 -71 -36 -111 -121 -91 -193
14 -54 75 -117 129 -133 22 -7 48 -24 60 -40 17 -23 29 -29 59 -29 106 0 233
113 356 318 21 34 59 84 85 111 26 27 63 79 82 115 25 49 39 66 55 66 11 0 66
13 122 29 76 21 102 25 102 15 0 -23 40 -44 65 -34 30 11 35 5 35 -41 0 -30
-6 -42 -30 -59 -16 -12 -46 -24 -65 -27 -64 -10 -100 51 -54 93 24 22 52 10
57 -25 3 -16 -2 -21 -17 -21 -12 0 -21 6 -21 15 0 8 8 15 18 15 14 0 14 2 3 9
-21 14 -41 2 -41 -25 0 -19 24 -44 44 -44 13 0 36 34 36 55 0 24 -33 55 -58
55 -22 0 -62 -48 -62 -75 0 -15 11 -36 25 -49 21 -19 23 -25 10 -30 -19 -7
-19 -40 0 -56 12 -10 18 -10 30 0 10 8 15 9 15 1 0 -17 45 -42 63 -35 9 3 19
15 23 26 7 25 -18 53 -40 45 -22 -8 -20 -44 2 -50 14 -4 14 -5 1 -6 -9 0 -22
5 -28 13 -17 20 -2 45 46 81 21 16 41 33 45 39 4 5 10 -3 13 -20 4 -16 13 -48
20 -72 13 -41 13 -48 -15 -123 -41 -114 -53 -180 -41 -226 13 -48 66 -100 114
-114 108 -29 205 74 164 174 -25 59 -89 82 -147 52 -57 -29 -55 -129 2 -149
61 -21 115 31 83 80 -9 14 -25 24 -38 24 -22 0 -22 -1 3 -20 20 -16 23 -22 14
-37 -26 -43 -78 -18 -72 34 4 40 45 61 85 44 61 -25 70 -96 19 -147 -40 -40
-92 -46 -143 -14 -76 46 -84 114 -34 271 23 72 36 98 51 102 25 6 30 0 30 -39
0 -35 31 -74 60 -74 45 0 77 59 48 88 -34 34 -92 -6 -63 -44 12 -17 16 -17 37
-5 21 13 22 13 9 -2 -30 -37 -68 -14 -73 43 -3 30 0 34 31 42 33 9 33 10 26
51 -4 23 -15 93 -25 155 l-17 113 36 -3 36 -3 3 50 c3 66 -22 117 -65 129 -26
8 -33 16 -37 45 -7 43 -42 393 -51 508 -8 96 -26 127 -83 143 -20 5 -39 9 -42
9 -3 -1 -12 -3 -21 -6z m26 -587 c8 -71 14 -130 13 -131 -13 -10 -234 -70
-236 -64 -2 4 4 32 13 62 15 51 19 55 51 62 20 3 49 3 65 0 17 -4 29 -2 29 4
0 14 -76 34 -100 26 -11 -4 -20 -5 -20 -3 0 16 103 377 121 423 l23 60 13
-155 c7 -85 19 -213 28 -284z"/>
<path d="M1420 958 c0 -27 33 -214 38 -220 13 -13 77 8 73 23 -3 8 -15 46 -27
84 -12 39 -25 81 -28 95 -4 18 -12 25 -31 26 -14 1 -25 -3 -25 -8z"/>
</g>
</svg>
