<?xml version="1.0" standalone="no"?>
<!DOCTYPE svg PUBLIC "-//W3C//DTD SVG 20010904//EN"
 "http://www.w3.org/TR/2001/REC-SVG-20010904/DTD/svg10.dtd">
<svg version="1.0" xmlns="http://www.w3.org/2000/svg"
 width="225.000000pt" height="225.000000pt" viewBox="0 0 225.000000 225.000000"
 preserveAspectRatio="xMidYMid meet">
<metadata>
Created by potrace 1.16, written by Peter Selinger 2001-2019
</metadata>
<g transform="translate(0.000000,225.000000) scale(0.100000,-0.100000)"
fill="#000000" stroke="none">
<path d="M900 2221 c-157 -35 -280 -87 -404 -171 -460 -310 -624 -908 -385
-1409 104 -219 262 -388 474 -506 76 -43 228 -99 303 -113 l52 -9 0 433 0 433
-137 3 -138 3 -3 158 -3 157 140 0 139 0 4 183 c3 180 3 183 35 249 80 170
223 232 488 212 l120 -9 0 -140 0 -140 -127 -5 c-117 -5 -128 -7 -152 -29 -36
-34 -46 -78 -46 -208 l0 -113 155 0 c142 0 155 -1 155 -18 0 -23 -29 -250 -35
-279 -5 -22 -9 -23 -140 -23 l-135 0 0 -435 0 -435 24 0 c13 0 68 11 122 25
132 33 314 124 421 210 294 235 452 609 414 978 -48 480 -376 864 -841 987
-122 32 -378 38 -500 11z"/>
</g>
</svg>
