<?xml version="1.0" standalone="no"?>
<!DOCTYPE svg PUBLIC "-//W3C//DTD SVG 20010904//EN"
 "http://www.w3.org/TR/2001/REC-SVG-20010904/DTD/svg10.dtd">
<svg version="1.0" xmlns="http://www.w3.org/2000/svg"
 width="259.000000pt" height="194.000000pt" viewBox="0 0 259.000000 194.000000"
 preserveAspectRatio="xMidYMid meet">
<metadata>
Created by potrace 1.16, written by Peter Selinger 2001-2019
</metadata>
<g transform="translate(0.000000,194.000000) scale(0.100000,-0.100000)"
fill="#000000" stroke="none">
<path d="M693 1826 c-133 -42 -235 -155 -263 -289 -7 -36 -10 -230 -8 -598 3
-543 3 -544 26 -601 31 -76 105 -156 184 -199 l63 -34 600 0 600 0 58 29 c72
37 150 118 185 193 l27 58 0 585 0 585 -27 57 c-37 80 -107 152 -187 191 l-66
32 -575 2 c-456 2 -584 -1 -617 -11z m1032 -225 c44 -17 77 -40 122 -86 53
-54 65 -73 85 -136 22 -71 23 -87 23 -409 0 -322 -1 -338 -23 -409 -20 -63
-32 -82 -85 -136 -45 -45 -78 -69 -122 -86 -59 -24 -64 -24 -430 -24 -366 0
-371 0 -430 24 -44 17 -77 41 -122 86 -53 54 -65 73 -85 136 -22 71 -23 87
-23 409 0 320 1 338 23 407 39 125 142 215 275 243 23 5 197 8 387 6 336 -1
347 -2 405 -25z"/>
<path d="M965 1503 c-103 -24 -166 -78 -193 -162 -15 -48 -17 -100 -17 -371 0
-370 5 -400 78 -467 72 -67 81 -68 462 -68 381 0 390 1 462 68 73 67 78 97 78
467 0 362 -5 397 -72 462 -74 72 -79 73 -448 75 -181 1 -339 -1 -350 -4z m740
-128 c14 -13 25 -36 25 -50 0 -30 -49 -85 -75 -85 -24 0 -72 27 -79 45 -33 86
65 154 129 90z m-262 -98 c161 -79 237 -281 165 -439 -35 -75 -98 -141 -167
-175 -49 -24 -68 -28 -146 -28 -78 0 -97 4 -146 28 -163 79 -239 281 -167 438
44 96 119 165 211 195 67 22 184 13 250 -19z"/>
<path d="M1225 1179 c-16 -4 -47 -22 -68 -40 -111 -92 -106 -256 10 -345 140
-107 345 -3 345 175 0 151 -140 254 -287 210z"/>
</g>
</svg>
