<?xml version="1.0" standalone="no"?>
<!DOCTYPE svg PUBLIC "-//W3C//DTD SVG 20010904//EN"
 "http://www.w3.org/TR/2001/REC-SVG-20010904/DTD/svg10.dtd">
<svg version="1.0" xmlns="http://www.w3.org/2000/svg"
 width="225.000000pt" height="225.000000pt" viewBox="0 0 225.000000 225.000000"
 preserveAspectRatio="xMidYMid meet">
<metadata>
Created by potrace 1.16, written by Peter Selinger 2001-2019
</metadata>
<g transform="translate(0.000000,225.000000) scale(0.100000,-0.100000)"
fill="#000000" stroke="none">
<path d="M919 2194 c-202 -36 -410 -147 -563 -300 -208 -209 -316 -471 -316
-769 0 -176 38 -344 110 -485 l20 -40 -46 -172 c-26 -95 -49 -183 -52 -196 -7
-36 26 -110 64 -138 47 -37 96 -40 190 -14 43 13 128 35 187 50 l108 27 92
-37 c138 -55 208 -70 358 -77 160 -7 267 6 391 47 348 116 605 384 714 745 26
84 28 102 28 285 1 214 -6 255 -68 414 -133 335 -457 599 -813 661 -105 18
-301 18 -404 -1z m423 -108 c357 -76 660 -378 744 -741 25 -107 26 -319 2
-427 -83 -373 -384 -676 -750 -754 -211 -45 -413 -23 -620 65 l-91 39 -151
-40 c-272 -73 -253 -70 -283 -44 l-26 23 41 149 c73 258 72 250 30 341 -51
109 -67 162 -85 278 -81 529 271 1020 802 1120 99 18 279 14 387 -9z"/>
<path d="M1015 1944 c-11 -3 -51 -12 -90 -21 -234 -53 -446 -228 -549 -455
-52 -114 -71 -205 -71 -343 0 -146 19 -231 82 -365 58 -125 60 -151 25 -283
-16 -59 -26 -107 -23 -107 3 0 49 12 100 25 132 35 180 33 270 -10 202 -97
437 -109 650 -34 211 74 416 279 490 490 57 160 64 334 22 498 -73 281 -301
508 -582 582 -81 21 -275 35 -324 23z m-191 -344 c14 -5 32 -23 41 -39 27 -53
85 -203 85 -221 0 -9 -15 -36 -32 -60 -18 -24 -39 -51 -47 -62 -13 -17 -9 -26
34 -89 26 -38 75 -94 109 -124 64 -58 199 -135 235 -135 14 0 39 23 73 65 35
43 60 65 75 65 11 0 72 -26 135 -57 l113 -58 -1 -63 c-1 -53 -5 -68 -30 -99
-16 -19 -53 -48 -83 -64 -44 -24 -66 -29 -121 -29 -88 0 -258 54 -361 114
-145 85 -322 279 -405 443 -30 58 -38 87 -42 145 -5 91 8 142 54 203 51 66
108 88 168 65z"/>
</g>
</svg>
